<svg width="37" height="37" viewBox="0 0 37 37" fill="none" xmlns="http://www.w3.org/2000/svg">
<path d="M27.2274 11.569L27.2201 11.5752L27.2132 11.5821L15.6224 23.1729L9.73697 17.7844C9.66976 17.7159 9.58958 17.6614 9.50109 17.6242C9.4098 17.5857 9.31159 17.5664 9.21253 17.5674C9.11347 17.5685 9.01568 17.5898 8.9252 17.6301C8.83472 17.6704 8.75346 17.7288 8.68646 17.8018C8.61946 17.8748 8.56813 17.9607 8.53565 18.0543C8.50317 18.1479 8.49023 18.2471 8.49763 18.3459C8.50503 18.4447 8.53261 18.5409 8.57866 18.6286C8.62337 18.7137 8.68455 18.789 8.75862 18.8502L15.1512 24.7073C15.2857 24.8346 15.4638 24.9055 15.649 24.9055C15.8352 24.9055 16.0141 24.8339 16.1489 24.7054L16.1489 24.7055L16.1532 24.7012L28.2358 12.6044L28.2426 12.5976L28.2488 12.5903C28.3675 12.4518 28.4295 12.2735 28.4224 12.0912C28.4154 11.9089 28.3398 11.736 28.2108 11.6069C28.0818 11.4779 27.9089 11.4024 27.7266 11.3953C27.5442 11.3883 27.366 11.4503 27.2274 11.569Z" fill="#2D68F3" stroke="#2D68F3" stroke-width="0.5"/>
<path d="M18.5003 0.75H18.5C14.9894 0.75 11.5576 1.79102 8.63863 3.74141C5.71966 5.69181 3.4446 8.46398 2.10115 11.7074C0.757691 14.9508 0.406182 18.5197 1.09107 21.9628C1.77596 25.406 3.46648 28.5688 5.94886 31.0511C8.43124 33.5335 11.594 35.224 15.0372 35.9089C18.4803 36.5938 22.0492 36.2423 25.2926 34.8989C28.536 33.5554 31.3082 31.2803 33.2586 28.3614C35.209 25.4424 36.25 22.0106 36.25 18.5V18.4997C36.2449 13.7938 34.3732 9.28202 31.0456 5.9544C27.718 2.62679 23.2062 0.755095 18.5003 0.75ZM18.4997 34.8012C15.2757 34.8012 12.1242 33.8451 9.44353 32.054C6.7628 30.2628 4.67343 27.7169 3.43963 24.7382C2.20583 21.7595 1.88301 18.4819 2.512 15.3198C3.14098 12.1577 4.69353 9.25305 6.97329 6.97329C9.25306 4.69352 12.1577 3.14098 15.3198 2.51199C18.4819 1.883 21.7596 2.20582 24.7382 3.43962C27.7169 4.67343 30.2628 6.76279 32.054 9.44352C33.8451 12.1242 34.8012 15.2757 34.8012 18.4997C34.7963 22.8216 33.0772 26.9651 30.0212 30.0212C26.9651 33.0772 22.8216 34.7963 18.4997 34.8012Z" fill="#2D68F3" stroke="#2D68F3" stroke-width="0.5"/>
</svg>
